{"title":"Scrooged 1988 BRRip 720p x264 AAC - PRiSTiNE [P2PDL]","uid":9395237,"size":678100217,"categoryP":"video","categoryS":"hd___movies","magnet":"?xt=urn:btih:a850dd19cf7a436b09c5c92942e55ab3a388d153&amp;dn=Scrooged+1988+BRRip+720p+x264+AAC+-+PRiSTiNE+%5BP2PDL%5D&amp;tr=udp%3A%2F%2Ftracker.openbittorrent.com%3A80&amp;tr=udp%3A%2F%2Fopen.demonii.com%3A1337&amp;tr=udp%3A%2F%2Ftracker.coppersurfer.tk%3A6969&amp;tr=udp%3A%2F%2Fexodus.desync.com%3A6969","seeders":2,"leechers":1,"uploader":"Vitamin_X","files":-1,"time":1387967604,"description":"_______ Visit us at our Semi Public Bittorrent Community ________\n  &lt;a href=&quot;\nhttp://p2pdl.com&quot; rel=&quot;nofollow&quot; target=&quot;_NEW&quot;&gt;\nhttp://p2pdl.com&lt;/a&gt;  _____________________________ &lt;a href=&quot; http://p2pdl.com&quot; rel=&quot;nofollow&quot; target=&quot;_NEW&quot;&gt; http://p2pdl.com&lt;/a&gt;\n\n\nScrooged 1988 BRRip 720p x264 AAC - PRiSTiNE\n\n\nIMDb: &lt;a href=&quot; http://www.imdb.com/title/tt0096061/&quot; rel=&quot;nofollow&quot; target=&quot;_NEW&quot;&gt; http://www.imdb.com/title/tt0096061/&lt;/a&gt;\n\n\nGeneral\nFormat                         : MPEG-4\nFile size                      : 636 MiB\nDuration                       : 1h 40mn\nOverall bit rate mode          : Variable\nOverall bit rate               : 881 Kbps\n\n\nVideo\nFormat                         : AVC\nBit rate                       : 799 Kbps\nWidth                          : 1 280 pixels\nHeight                         : 720 pixels\nDisplay aspect ratio           : 16:9\nFrame rate mode                : Constant\nFrame rate                     : 23.976 fps\nBit depth                      : 10 bits\nStream size                    : 576 MiB (91%)\nWriting library                : x264 core 140 r2377 1ca7bb9\n\nAudio\nFormat                         : AAC\nBit rate                       : 80.0 Kbps\nChannel count                  : 2 channels\nChannel positions              : Front: L R\nSampling rate                  : 48.0 KHz / 24.0 KHz\nStream size                    : 57.8 MiB (9%)\nLanguage                       : English\n\n\nSubtitle                       : Yes (English)\n\nSource                         : 720p.BluRay.X264-AMIABLE\n\n &lt;a href=&quot;\nhttp://someimage.com/yXx7u5Y&quot; rel=&quot;nofollow&quot; target=&quot;_NEW&quot;&gt;\nhttp://someimage.com/yXx7u5Y&lt;/a&gt; &lt;a href=&quot;\nhttp://someimage.com/EhBuJcQ&quot; rel=&quot;nofollow&quot; target=&quot;_NEW&quot;&gt;\nhttp://someimage.com/EhBuJcQ&lt;/a&gt; &lt;a href=&quot;\nhttp://someimage.com/2kZnrTr&quot; rel=&quot;nofollow&quot; target=&quot;_NEW&quot;&gt;\nhttp://someimage.com/2kZnrTr&lt;/a&gt; &lt;a href=&quot;\nhttp://someimage.com/uUdq1s0&quot; rel=&quot;nofollow&quot; target=&quot;_NEW&quot;&gt;\nhttp://someimage.com/uUdq1s0&lt;/a&gt; &lt;a href=&quot;\nhttp://someimage.com/fUjDIHA&quot; rel=&quot;nofollow&quot; target=&quot;_NEW&quot;&gt;\nhttp://someimage.com/fUjDIHA&lt;/a&gt; &lt;a href=&quot;\nhttp://someimage.com/2CpxJRS&quot; rel=&quot;nofollow&quot; target=&quot;_NEW&quot;&gt;\nhttp://someimage.com/2CpxJRS&lt;/a&gt;\n\n----------------------------------------------------------------------------------------------------\n\n\nEncoded using revolutionary 10bit encoding, which enables us to provide you more crispier \nand sharper images at small sizes, just make sure you follow our instructions without a fault.\nRecommend to you to use latest version of VLC player. Install K-Lite Codec Pack or shark007 codecs\nin case of any kind of problem in playback (For non-VLC Media Player users). Alternatively, install\nCore AVC codecs, the fastest decoder that there is coupled with Community Center Codec Pack and play\non Windows Media Player Classic. Check sample to be sure.\nEnjoy!\n\nEncoder Notes:Looking For Early Access To Anything You Can Provide DVDScr, R5, DVDR, BluRay, Direct\nAudio, Music Releases and Seedboxes. We require dedicated servers, so as to do more \nand fast releases of movies.\nIf You Got anything to offer please contact us at &quot;&lt;a class=&quot;__cf_email__&quot; href=&quot;/cdn-cgi/l/email-protection&quot; data-cfemail=&quot;57272530173f22243f7934383a&quot;&gt;[email&amp;#160;protected]&lt;/a&gt;&lt;script cf-hash='f9e31' type=&quot;text/javascript&quot;&gt;\n/* &lt;![CDATA[ */!function(){try{var t=&quot;currentScript&quot;in document?document.currentScript:function(){for(var t=document.getElementsByTagName(&quot;script&quot;),e=t.length;e--;)if(t[e].getAttribute(&quot;cf-hash&quot;))return t[e]}();if(t&amp;&amp;t.previousSibling){var e,r,n,i,c=t.previousSibling,a=c.getAttribute(&quot;data-cfemail&quot;);if(a){for(e=&quot;&quot;,r=parseInt(a.substr(0,2),16),n=2;a.length-n;n+=2)i=parseInt(a.substr(n,2),16)^r,e+=String.fromCharCode(i);e=document.createTextNode(e),c.parentNode.replaceChild(e,c)}}}catch(u){}}();/* ]]&gt; */&lt;/script&gt;&quot;.\n\nFacebook Fan Page:  \nSearch P2PDL on FB and don't forget to hit like!!!\n\nSupport us, please consider a donation.\n\n16aCJG7J5n8eqCHHLPNUZ3ZirwGU34cqXJ\n\nFor more of our team uploads visit @            &lt;a href=&quot;\nhttp://thepiratebay.se/user/ValidusVyto&quot; rel=&quot;nofollow&quot; target=&quot;_NEW&quot;&gt;\nhttp://thepiratebay.se/user/ValidusVyto&lt;/a&gt;\t\t","torrent":{"xt":"urn:btih:a850dd19cf7a436b09c5c92942e55ab3a388d153","amp;dn":"Scrooged+1988+BRRip+720p+x264+AAC+-+PRiSTiNE+%5BP2PDL%5D","amp;tr":["udp%3A%2F%2Ftracker.openbittorrent.com%3A80","udp%3A%2F%2Fopen.demonii.com%3A1337","udp%3A%2F%2Ftracker.coppersurfer.tk%3A6969","udp%3A%2F%2Fexodus.desync.com%3A6969"],"infoHash":"a850dd19cf7a436b09c5c92942e55ab3a388d153","infoHashBuffer":{"type":"Buffer","data":[168,80,221,25,207,122,67,107,9,197,201,41,66,229,90,179,163,136,209,83]},"announce":[],"urlList":[]}}